<?xml version="1.0" encoding="utf-8"?>
<!-- Generator: Adobe Illustrator 27.8.1, SVG Export Plug-In . SVG Version: 6.00 Build 0)  -->
<svg version="1.1" id="Laag" xmlns="http://www.w3.org/2000/svg" xmlns:xlink="http://www.w3.org/1999/xlink" x="0px" y="0px"
	 viewBox="0 0 750 303.7" style="enable-background:new 0 0 750 303.7;" xml:space="preserve">
<style type="text/css">
	.st0{fill:#666564;}
	.st1{fill:#C0D1C6;}
</style>
<g id="Praktijk_Kim_Dreef_logo">
	<path id="Kim_Dreef" class="st0" d="M237.1,220.1v-70.7c0-0.5,0.4-0.9,0.9-0.9h6.7c0.5,0,0.9,0.4,0.9,0.9v29c0,0.8,1,1.2,1.6,0.6
		l28.6-30.3c0.2-0.2,0.4-0.3,0.7-0.3h7.8c0.8,0,1.2,1,0.7,1.5l-29.1,30.5c-0.3,0.3-0.3,0.9,0,1.2l32.3,37.7c0.5,0.6,0.1,1.5-0.7,1.5
		h-8.7c-0.3,0-0.5-0.1-0.7-0.3L247.2,184c-0.5-0.7-1.6-0.3-1.6,0.6v35.6c0,0.5-0.4,0.9-0.9,0.9H238
		C237.5,221.1,237.1,220.6,237.1,220.1z M294.8,153.9c0-1.6,0.6-2.9,1.7-4c1.1-1.1,2.5-1.7,4-1.7c1.6,0,2.9,0.6,4,1.7
		c1.1,1.1,1.7,2.5,1.7,4.1c0,1.6-0.5,2.9-1.6,4c-1.1,1.1-2.4,1.6-4,1.6c-1.6,0-2.9-0.5-4-1.6C295.3,156.9,294.8,155.5,294.8,153.9z
		 M296.6,220.1v-43.5c0-0.5,0.4-0.9,0.9-0.9h6c0.5,0,0.9,0.4,0.9,0.9v43.5c0,0.5-0.4,0.9-0.9,0.9h-6
		C297,221.1,296.6,220.6,296.6,220.1z M384.8,221.1c-0.5,0-0.9-0.4-0.9-0.9v-25.8c0-4.6-0.9-8-2.8-10.2c-1.8-2.2-4.7-3.3-8.5-3.3
		c-2.1,0-4,0.4-5.8,1.3c-1.8,0.8-3.3,2-4.5,3.6c-0.9,1.2-1.5,2.6-1.9,4.2c-0.4,1.6-0.6,4.2-0.6,7.8v22.5c0,0.5-0.4,0.9-0.9,0.9h-5.7
		c-0.5,0-0.9-0.4-0.9-0.9v-25.8c0-4.6-0.9-8-2.8-10.2c-1.9-2.2-4.7-3.3-8.5-3.3c-2.1,0-4,0.4-5.8,1.3c-1.8,0.8-3.3,2-4.5,3.6
		c-0.9,1.2-1.5,2.5-1.9,4c-0.4,1.5-0.6,4.2-0.6,8v22.5c0,0.5-0.4,0.9-0.9,0.9h-5.7c-0.5,0-0.9-0.4-0.9-0.9v-43.5
		c0-0.5,0.4-0.9,0.9-0.9h5.8c0.5,0,0.9,0.4,0.9,0.9v3.3c0,0.9,1.1,1.2,1.6,0.6c1.5-1.8,3.2-3.3,5.1-4.3c2.6-1.4,5.6-2.1,9-2.1
		c3.7,0,6.8,0.8,9.4,2.4c2.2,1.3,3.9,3.1,5.1,5.5c0.3,0.6,1.2,0.7,1.6,0.1c1.8-2.5,3.8-4.3,6-5.6c2.7-1.5,5.7-2.3,9.2-2.3
		c5.1,0,9,1.4,11.8,4.3c2.8,2.8,4.3,6.8,4.3,11.8v29.9c0,0.5-0.4,0.9-0.9,0.9H384.8z M437.5,220.1v-70.7c0-0.5,0.4-0.9,0.9-0.9h13
		c10.3,0,17.6,0.5,21.8,1.6c4.2,1,7.9,2.8,11.1,5.2c4.2,3.2,7.3,7.3,9.5,12.3c2.1,5,3.2,10.7,3.2,17.2c0,6.5-1.1,12.2-3.2,17.2
		c-2.1,5-5.3,9.1-9.5,12.3c-3.2,2.4-6.8,4.2-10.8,5.2c-4,1-10.3,1.6-18.9,1.6h-3.1h-13C437.9,221.1,437.5,220.6,437.5,220.1z
		 M446.2,212c0,0.5,0.4,0.9,0.9,0.9h4.6c8.9,0,15.1-0.4,18.5-1.2c3.4-0.8,6.3-2.1,8.6-4c3-2.5,5.2-5.7,6.8-9.6
		c1.6-3.9,2.3-8.4,2.3-13.4c0-5.1-0.8-9.5-2.3-13.4c-1.5-3.8-3.8-7-6.8-9.5c-2.3-1.9-5.2-3.3-8.7-4.1c-3.5-0.8-9.7-1.2-18.4-1.2
		h-4.6c-0.5,0-0.9,0.4-0.9,0.9V212z M510.3,220.1v-43.5c0-0.5,0.4-0.9,0.9-0.9h5.1c0.5,0,0.9,0.4,0.9,0.9v5.1c0,0.9,1.2,1.2,1.7,0.5
		c1.6-2.4,3.2-4.3,5-5.5c2.3-1.7,5.2-2.5,8.6-2.5c0.9,0,1.8,0.1,2.7,0.2c0.9,0.1,1.7,0.4,2.6,0.7l-2.6,7c-0.9-0.3-1.7-0.5-2.5-0.7
		c-0.8-0.1-1.6-0.2-2.3-0.2c-4.1,0-7.2,1.5-9.2,4.4c-2,3-3.1,7.4-3.1,13.3v21.2c0,0.5-0.4,0.9-0.9,0.9h-5.9
		C510.7,221.1,510.3,220.6,510.3,220.1z M586.3,199.6h-35.9v0.7c0,4.9,1.4,8.8,4.2,11.8c2.8,3,6.4,4.5,10.8,4.5c3,0,5.8-0.8,8.2-2.4
		c2.2-1.5,4.2-3.7,6-6.6c0.3-0.4,0.9-0.6,1.3-0.3l4.4,2.9c0.4,0.3,0.5,0.8,0.3,1.2c-2.2,3.7-5,6.6-8.3,8.5
		c-3.5,2.1-7.6,3.1-12.3,3.1c-6.9,0-12.5-2.3-16.7-6.8c-4.3-4.6-6.4-10.5-6.4-17.9c0-7.1,2.1-12.9,6.3-17.4
		c4.2-4.5,9.7-6.8,16.3-6.8c6.7,0,12,2.1,15.9,6.4c3.9,4.3,5.9,10.2,5.9,17.6V199.6z M577,193.3c0.5,0,1-0.5,0.9-1
		c-0.4-3.5-1.7-6.2-3.9-8.2c-2.4-2.2-5.7-3.2-9.8-3.2c-3.8,0-6.9,1.1-9.4,3.4c-2.3,2-3.7,4.7-4.2,8c-0.1,0.5,0.4,1.1,0.9,1.1H577z
		 M638.5,199.6h-35.9v0.7c0,4.9,1.4,8.8,4.2,11.8c2.8,3,6.4,4.5,10.8,4.5c3,0,5.8-0.8,8.2-2.4c2.2-1.5,4.2-3.7,6-6.6
		c0.3-0.4,0.9-0.6,1.3-0.3l4.4,2.9c0.4,0.3,0.5,0.8,0.3,1.2c-2.2,3.7-5,6.6-8.3,8.5c-3.5,2.1-7.6,3.1-12.3,3.1
		c-6.9,0-12.5-2.3-16.7-6.8c-4.3-4.6-6.4-10.5-6.4-17.9c0-7.1,2.1-12.9,6.3-17.4c4.2-4.5,9.7-6.8,16.3-6.8c6.7,0,12,2.1,15.9,6.4
		c3.9,4.3,5.9,10.2,5.9,17.6V199.6z M629.1,193.3c0.5,0,1-0.5,0.9-1c-0.4-3.5-1.7-6.2-3.9-8.2c-2.4-2.2-5.7-3.2-9.8-3.2
		c-3.8,0-6.9,1.1-9.4,3.4c-2.3,2-3.7,4.7-4.2,8c-0.1,0.5,0.4,1.1,0.9,1.1H629.1z M652.2,220.1V183c0-0.5-0.4-0.9-0.9-0.9h-6.9
		c-0.5,0-0.9-0.4-0.9-0.9v-4.6c0-0.5,0.4-0.9,0.9-0.9h6.9c0.5,0,0.9-0.4,0.9-0.9v-12.2c0-7.5,0.9-12.6,2.8-15.3
		c1.9-2.7,5.3-4,10.2-4c1.2,0,2.4,0.1,3.5,0.2c0.9,0.1,1.7,0.3,2.6,0.6c0.4,0.1,0.6,0.5,0.6,0.9v7.3c-1-0.6-2-1-3-1.2
		c-1-0.3-2-0.4-3.1-0.4c-2.3,0-3.8,0.7-4.7,2.2c-0.9,1.5-1.3,5-1.3,10.7v11.2c0,0.5,0.4,0.9,0.9,0.9H671c0.5,0,0.9,0.4,0.9,0.9v4.6
		c0,0.5-0.4,0.9-0.9,0.9H661c-0.5,0-0.9,0.4-0.9,0.9v37.1c0,0.5-0.4,0.9-0.9,0.9h-6C652.6,221.1,652.2,220.6,652.2,220.1z"/>
	<path id="Praktijk" class="st1" d="M245.4,127.7v8.6c0,0.3-0.3,0.6-0.6,0.6h-6.5c-0.3,0-0.6-0.3-0.6-0.6V108c0-0.3,0.3-0.6,0.6-0.6
		h11.6c2.6,0,5.2,0.5,7.5,2.7c2.3,2.2,2.7,4.7,2.7,7.2c0,2.3-0.3,5.1-2.6,7.3c-2.3,2.3-5,2.6-7.3,2.6h-4.2
		C245.6,127.1,245.4,127.4,245.4,127.7z M245.4,120.9h2.6c0.8,0,2.3-0.1,3.2-0.9c0.9-0.8,1-2,1-2.7c0-0.8-0.1-1.9-0.9-2.7
		c-0.9-0.9-2.3-1.1-3.3-1.1h-2.6V120.9z M278.4,107.4c2.2,0,5,0.4,7.2,2.6c1.7,1.7,2.5,4.3,2.5,6.6c0,2.5-0.9,4.7-2.3,6.1
		c-0.9,0.9-2.1,1.5-3.2,1.8c-0.4,0.1-0.6,0.6-0.3,0.9l8,10.5c0.3,0.4,0,0.9-0.5,0.9h-8c-0.2,0-0.4-0.1-0.5-0.3l-6.1-9.4
		c-0.3-0.5-1-0.3-1,0.3v8.8c0,0.3-0.3,0.6-0.6,0.6H267c-0.3,0-0.6-0.3-0.6-0.6V108c0-0.3,0.3-0.6,0.6-0.6H278.4z M274.1,120.6h1.5
		c1.1,0,2.8-0.3,3.7-1.2c0.6-0.6,1-1.5,1-2.5c0-0.9-0.4-1.9-1-2.5c-0.7-0.7-2-1.2-3.7-1.2h-1.5V120.6z M313.9,131.9H304
		c-0.2,0-0.4,0.1-0.5,0.4l-1.7,4.2c-0.1,0.2-0.3,0.4-0.5,0.4h-6.9c-0.4,0-0.7-0.4-0.5-0.8l10.9-28.3c0.1-0.2,0.3-0.4,0.5-0.4h7.6
		c0.2,0,0.4,0.1,0.5,0.4l10.7,28.3c0.1,0.4-0.1,0.8-0.5,0.8h-7c-0.2,0-0.5-0.1-0.5-0.4l-1.5-4.2
		C314.4,132.1,314.2,131.9,313.9,131.9z M312,125.4l-2.5-7.2c-0.2-0.5-0.9-0.5-1.1,0l-2.4,7.2c-0.1,0.4,0.1,0.8,0.5,0.8h4.9
		C311.9,126.1,312.2,125.7,312,125.4z M338.6,118.2l8.2-10.6c0.1-0.1,0.3-0.2,0.5-0.2h8c0.5,0,0.7,0.6,0.4,0.9L345,121
		c-0.2,0.2-0.2,0.5,0,0.7l11.7,14.2c0.3,0.4,0,0.9-0.4,0.9h-8.4c-0.2,0-0.3-0.1-0.4-0.2l-8.8-11.2c-0.3-0.4-1-0.2-1,0.4v10.5
		c0,0.3-0.3,0.6-0.6,0.6h-6.5c-0.3,0-0.6-0.3-0.6-0.6V108c0-0.3,0.3-0.6,0.6-0.6h6.5c0.3,0,0.6,0.3,0.6,0.6v9.9
		C337.6,118.4,338.3,118.7,338.6,118.2z M373.7,114.5v21.8c0,0.3-0.3,0.6-0.6,0.6h-6.5c-0.3,0-0.6-0.3-0.6-0.6v-21.8
		c0-0.3-0.3-0.6-0.6-0.6h-5.1c-0.3,0-0.6-0.3-0.6-0.6V108c0-0.3,0.3-0.6,0.6-0.6h19.1c0.3,0,0.6,0.3,0.6,0.6v5.4
		c0,0.3-0.3,0.6-0.6,0.6h-5.1C373.9,113.9,373.7,114.2,373.7,114.5z M393.2,108v28.3c0,0.3-0.3,0.6-0.6,0.6h-6.5
		c-0.3,0-0.6-0.3-0.6-0.6V108c0-0.3,0.3-0.6,0.6-0.6h6.5C393,107.4,393.2,107.7,393.2,108z M415.6,107.4c0.3,0,0.6,0.3,0.6,0.6v19.7
		c0,2.7-0.2,4.8-2.5,7.1c-1.9,1.9-4.2,2.8-7.2,2.8c-1.6,0-3-0.3-4.6-1.3c-0.9-0.6-1.9-1.5-2.6-2.6c-0.2-0.2-0.1-0.5,0.1-0.7l4.7-4.8
		c0.1,0.8,0.5,1.9,1.1,2.3c0.4,0.3,1,0.5,1.5,0.5c0.5,0,1-0.2,1.3-0.5c0.7-0.6,0.8-2.1,0.8-3V108c0-0.3,0.3-0.6,0.6-0.6H415.6z
		 M433.2,118.2l8.2-10.6c0.1-0.1,0.3-0.2,0.5-0.2h8c0.5,0,0.7,0.6,0.4,0.9L439.6,121c-0.2,0.2-0.2,0.5,0,0.7l11.7,14.2
		c0.3,0.4,0,0.9-0.4,0.9h-8.4c-0.2,0-0.3-0.1-0.4-0.2l-8.8-11.2c-0.3-0.4-1-0.2-1,0.4v10.5c0,0.3-0.3,0.6-0.6,0.6h-6.5
		c-0.3,0-0.6-0.3-0.6-0.6V108c0-0.3,0.3-0.6,0.6-0.6h6.5c0.3,0,0.6,0.3,0.6,0.6v9.9C432.2,118.4,432.9,118.7,433.2,118.2z"/>
	<g id="Vlinder">
		<path id="Vleugels" class="st1" d="M114,77c25.4-5.9,60.3,29.8,33.5,112.6c-21.3,66-58.3,54.6-62.8,51
			c-4.2-3.3-22.7-35.5,28.9-61.8C70.6,142.8,92.4,81.9,114,77z M205.7,134.6c-11.6-11.3-41.6-3.4-53.9,49.2
			c-9.8,41.9,13.5,47.7,17.1,47.2c3.3-0.4,23.4-11.6,4.4-42.1C207.7,183.5,215.5,144.2,205.7,134.6z"/>
		<path id="Lijnen" class="st0" d="M172.6,138.4c-3.8,3.3-7.6,8.1-11,13.9c4.7-10.5,9-21.1,13-31.9c5.3-14.5,9.6-29.3,13.5-44.2
			c0.3-1.2-0.5-2.4-1.7-2.6c-1.2-0.2-2.3,0.6-2.5,1.7c-1.3,7.5-2.9,15-4.8,22.4c-5.1,20-11.9,39.6-20.5,58.4
			c8.5-30.8,9.4-63.6,2.6-94.9c-0.7-2.8-4.8-1.7-4.1,1c2.1,8.1,3.9,16.4,4.9,24.8c1,8.4,1.4,16.9,1.3,25.3
			c-0.1,8.5-0.8,16.9-2.1,25.3c-0.9,5.8-2.1,11.5-3.5,17.2c2.1-16,1.7-31.9-2.2-45c-4.7-18-21-38.1-41.6-32.9
			c20.1-3.3,34.5,16.2,38.5,33.8c7,30.1-0.6,61.7-11.1,90.1c-1,2.2-3.2,7.6-4.3,9.7c-0.9,1.5-2.6,4.6-3.4,6.2
			c-5.2,9.1-12.3,17.5-21.7,22.3c-8.1,4.4-18.8,5.8-27.2,1.5c8.3,5.2,19.4,4.3,28.1,0.3c10.1-4.6,17.9-13.2,23.7-22.4
			c4.3-7,8.2-15.3,11.5-24.3c-1,11,0.4,21.2,5.4,28.2c3.5,4.8,9.3,8.9,15.4,8.6c-2.2-0.1-4.3-1-6.2-2.1
			c-19.7-12.5-9.7-44.5-3.5-62.3c3.2-8,7.2-16,12.7-22.6c7.7-9.6,22.5-18.1,33.7-9.3C196.4,125,181,130.3,172.6,138.4z"/>
	</g>
</g>
</svg>
