<svg xmlns="http://www.w3.org/2000/svg" version="1.1" xmlns:xlink="http://www.w3.org/1999/xlink" width="132" height="186"><svg width="132" height="186" viewBox="0 0 132 186" fill="none" xmlns="http://www.w3.org/2000/svg">
<path d="M36 18C61.4 12.1 96.3 47.8 69.5 130.6C48.2 196.6 11.2 185.2 6.7 181.6C2.5 178.3 -16 146.1 35.6 119.8C-7.39999 83.8 14.4 22.9 36 18ZM127.7 75.6C116.1 64.3 86.1 72.2 73.8 124.8C64 166.7 87.3 172.5 90.9 172C94.2 171.6 114.3 160.4 95.3 129.9C129.7 124.5 137.5 85.2 127.7 75.6Z" fill="#C0D1C6"></path>
<path d="M94.6 79.4C90.8 82.7 87 87.5 83.6 93.3C88.3 82.8 92.6 72.2 96.6 61.4C101.9 46.9 106.2 32.1 110.1 17.2C110.4 16 109.6 14.8 108.4 14.6C107.2 14.4 106.1 15.2 105.9 16.3C104.6 23.8 103 31.3 101.1 38.7C96 58.7 89.2 78.3 80.6 97.1C89.1 66.3 90 33.5 83.2 2.19999C82.5 -0.60001 78.4 0.49999 79.1 3.19999C81.2 11.3 83 19.6 84 28C85 36.4 85.4 44.9 85.3 53.3C85.2 61.8 84.5 70.2 83.2 78.6C82.3 84.4 81.1 90.1 79.7 95.8C81.8 79.8 81.4 63.9 77.5 50.8C72.8 32.8 56.5 12.7 35.9 17.9C56 14.6 70.3999 34.1 74.3999 51.7C81.3999 81.8 73.8 113.4 63.3 141.8C62.3 144 60.1 149.4 59 151.5C58.1 153 56.4 156.1 55.6 157.7C50.4 166.8 43.3 175.2 33.9 180C25.8 184.4 15.1 185.8 6.69995 181.5C15 186.7 26.1 185.8 34.8 181.8C44.9 177.2 52.7 168.6 58.5 159.4C62.8 152.4 66.7 144.1 70 135.1C69 146.1 70.3999 156.3 75.3999 163.3C78.8999 168.1 84.7 172.2 90.8 171.9C88.6 171.8 86.5 170.9 84.6 169.8C64.9 157.3 74.9 125.3 81.1 107.5C84.3 99.5 88.3 91.5 93.8 84.9C101.5 75.3 116.3 66.8 127.5 75.6C118.4 66 103 71.3 94.6 79.4Z" fill="#666564"></path>
</svg><style>@media (prefers-color-scheme: light) { :root { filter: none; } }
@media (prefers-color-scheme: dark) { :root { filter: none; } }
</style></svg>